<?xml version="1.0" encoding="UTF-8" standalone="no"?>
<!DOCTYPE svg PUBLIC "-//W3C//DTD SVG 1.1//EN" "http://www.w3.org/Graphics/SVG/1.1/DTD/svg11.dtd">
<svg xmlns="http://www.w3.org/2000/svg" version="1.1" viewBox="0 0 146 30">
<path fill="#000000" d="
  M 22.06 0.00
  L 31.81 0.00
  Q 32.24 0.82 31.78 1.54
  Q 31.14 2.54 31.08 2.73
  Q 26.15 16.52 20.44 30.00
  L 10.44 30.00
  Q 10.06 29.36 10.37 28.82
  Q 10.65 28.33 10.68 28.26
  Q 18.59 7.96 20.94 1.44
  Q 21.34 0.32 22.06 0.00
  Z
  M 25.98 13.88
  Q 28.16 8.10 30.42 2.02
  A 0.71 0.69 -79.5 0 0 29.78 1.06
  L 23.09 1.01
  A 1.39 1.33 -79.2 0 0 21.83 1.90
  L 11.86 28.09
  A 0.44 0.43 -73.8 0 0 12.17 28.67
  Q 15.79 29.46 19.45 28.78
  A 0.94 0.93 -83.3 0 0 20.14 28.23
  Q 23.24 21.13 25.98 13.88
  Z"
/>
<ellipse fill="#000000" cx="0.00" cy="0.00" transform="translate(59.19,8.37) rotate(-2.2)" rx="4.11" ry="3.49"/>
<rect fill="#000000" x="46.01" y="5.50" width="6.74" height="24.00" rx="0.64"/>
<path fill="#000000" d="
  M 26.64 23.81
  A 0.28 0.27 12.2 0 1 26.40 23.45
  L 32.82 6.74
  Q 33.32 5.44 33.88 6.72
  L 43.48 28.71
  A 0.56 0.55 77.8 0 1 42.98 29.50
  L 34.32 29.45
  A 0.79 0.74 -10.5 0 1 33.60 28.99
  L 31.86 24.78
  A 0.90 0.73 78.4 0 0 31.20 24.24
  L 26.64 23.81
  Z"
/>
<path fill="#000000" d="
  M 91.54 24.52
  Q 92.42 24.29 93.01 24.79
  Q 93.37 25.09 93.57 25.98
  Q 93.84 27.13 94.27 27.98
  A 1.06 1.06 71.4 0 1 93.52 29.50
  Q 82.26 31.57 83.21 20.25
  Q 83.34 18.72 81.80 18.86
  A 0.63 0.56 -10.2 0 1 81.15 18.46
  Q 80.91 17.64 80.93 16.77
  Q 80.94 16.61 80.87 15.23
  Q 80.81 13.90 82.25 13.95
  A 0.65 0.50 4.0 0 0 82.90 13.52
  L 83.44 9.93
  A 0.65 0.47 -84.7 0 1 83.93 9.37
  L 88.90 9.30
  A 1.44 1.27 -83.0 0 1 90.10 11.06
  Q 89.36 14.25 91.69 14.12
  Q 92.95 14.05 93.25 14.31
  Q 93.75 14.71 93.64 15.60
  Q 93.55 16.37 93.63 16.89
  Q 94.09 19.79 91.57 19.19
  A 1.03 1.03 -76.2 0 0 90.34 19.94
  Q 89.54 23.04 90.69 24.35
  A 0.94 0.65 -23.5 0 0 91.54 24.52
  Z"
/>
<path fill="#000000" d="
  M 103.51 13.96
  L 107.19 12.86
  A 0.56 0.47 75.7 0 1 107.81 13.30
  Q 108.35 15.75 107.81 18.20
  A 0.60 0.56 8.6 0 1 107.19 18.63
  Q 104.94 18.49 103.60 20.16
  A 1.68 1.10 74.6 0 0 103.31 21.06
  L 103.00 28.83
  A 0.72 0.70 1.2 0 1 102.28 29.50
  L 97.10 29.50
  A 0.85 0.84 -0.0 0 1 96.25 28.66
  L 96.30 13.82
  A 0.59 0.58 87.2 0 1 96.81 13.25
  Q 98.28 13.09 99.78 13.19
  Q 99.82 13.19 101.23 13.13
  Q 102.20 13.09 102.78 13.77
  A 0.74 0.64 -26.3 0 0 103.51 13.96
  Z"
/>
<rect fill="#000000" x="-3.44" y="-8.19" transform="translate(59.19,21.31) rotate(-0.1)" width="6.88" height="16.38" rx="0.53"/>
<path fill="#000000" d="
  M 71.31 18.00
  Q 70.98 18.82 72.06 18.94
  Q 75.38 19.30 76.58 19.63
  Q 80.79 20.80 80.42 24.43
  Q 80.21 26.54 78.50 27.92
  Q 76.83 29.26 74.57 29.62
  Q 69.69 30.40 65.27 28.40
  A 0.67 0.67 -73.5 0 1 64.88 27.68
  Q 65.19 25.91 66.25 24.46
  A 0.72 0.67 26.8 0 1 67.04 24.23
  Q 71.14 25.63 73.25 25.25
  Q 74.91 24.95 73.90 24.06
  A 1.60 1.17 -15.9 0 0 73.01 23.73
  Q 69.78 23.60 67.56 22.69
  Q 64.52 21.43 64.81 17.81
  Q 65.07 14.69 69.01 13.54
  Q 74.19 12.04 79.10 14.00
  A 0.68 0.65 14.1 0 1 79.53 14.68
  Q 79.33 16.51 78.10 17.89
  A 1.07 0.63 16.2 0 1 77.27 18.10
  L 72.06 17.52
  A 0.78 0.72 -75.4 0 0 71.31 18.00
  Z"
/>
<path fill="#000000" d="
  M 119.62 28.29
  Q 117.15 30.00 114.35 29.77
  Q 111.71 29.55 110.00 27.30
  Q 106.73 23.00 113.06 20.06
  Q 114.59 19.35 118.20 19.86
  A 0.78 0.57 13.1 0 0 118.98 19.53
  Q 119.13 19.17 118.90 18.82
  Q 118.74 18.57 118.37 18.46
  Q 115.42 17.53 112.47 18.57
  A 0.66 0.50 -21.2 0 1 111.71 18.35
  L 110.18 15.04
  A 0.62 0.51 -25.9 0 1 110.51 14.32
  Q 112.72 13.20 116.25 13.00
  Q 126.25 12.44 126.09 21.51
  Q 126.04 24.34 126.04 24.48
  Q 126.06 26.66 125.86 28.82
  A 0.62 0.55 -87.2 0 1 125.31 29.39
  L 120.68 29.39
  A 0.67 0.67 -5.1 0 1 120.02 28.84
  L 119.95 28.46
  A 0.23 0.21 69.4 0 0 119.62 28.29
  Z
  M 119.2589 23.8110
  A 1.93 1.32 -15.6 0 0 117.0450 23.0586
  A 1.93 1.32 -15.6 0 0 115.5411 24.8490
  A 1.93 1.32 -15.6 0 0 117.7550 25.6014
  A 1.93 1.32 -15.6 0 0 119.2589 23.8110
  Z"
/>
<path fill="#000000" d="
  M 138.09 19.19
  Q 137.80 18.17 136.75 18.00
  Q 134.35 17.62 131.70 18.79
  A 0.66 0.62 -30.7 0 1 130.93 18.62
  Q 129.67 17.01 129.32 15.00
  A 0.65 0.65 73.8 0 1 129.70 14.30
  Q 133.22 12.78 136.98 12.90
  Q 140.63 13.01 142.68 14.67
  Q 145.25 16.74 145.25 20.75
  Q 145.25 24.50 145.25 28.84
  A 0.66 0.66 86.2 0 1 144.59 29.50
  Q 142.50 29.50 140.52 29.70
  Q 139.00 29.86 138.94 28.37
  Q 138.94 28.30 138.88 28.33
  Q 135.55 29.89 132.96 29.59
  Q 130.07 29.26 128.62 26.45
  Q 126.74 22.83 131.56 20.31
  Q 133.03 19.55 137.68 19.67
  A 0.40 0.37 -6.6 0 0 138.09 19.19
  Z
  M 138.26 24.46
  A 1.12 1.12 -81.6 0 0 137.17 22.99
  Q 133.64 23.10 135.25 25.30
  A 1.22 1.16 74.2 0 0 136.06 25.78
  Q 137.77 25.98 138.26 24.46
  Z"
/>
<path fill="#000000" d="
  M 6.19 30.00
  L 3.69 30.00
  Q 1.03 28.70 0.00 25.94
  L 0.00 23.94
  Q 1.47 20.08 4.77 20.06
  Q 7.53 20.05 9.20 22.62
  Q 11.97 26.89 6.19 30.00
  Z
  M 8.97 24.98
  A 3.99 3.99 0.0 0 0 4.98 20.99
  A 3.99 3.99 0.0 0 0 0.99 24.98
  A 3.99 3.99 0.0 0 0 4.98 28.97
  A 3.99 3.99 0.0 0 0 8.97 24.98
  Z"
/>
</svg>
