<?xml version="1.0" encoding="UTF-8" standalone="no"?>
<!DOCTYPE svg PUBLIC "-//W3C//DTD SVG 1.1//EN" "http://www.w3.org/Graphics/SVG/1.1/DTD/svg11.dtd">
<svg xmlns="http://www.w3.org/2000/svg" version="1.1" viewBox="0 0 146 30">
<path fill="#fcf9fb" fill-opacity="0.980" d="
  M 21.71 -0.04
  L 32.06 0.00
  L 20.44 30.00
  L 10.19 30.00
  L 21.71 -0.04
  Z
  M 25.90 13.85
  Q 28.21 7.82 30.51 1.78
  A 0.41 0.41 15.0 0 0 30.19 1.23
  Q 26.37 0.63 22.55 1.23
  A 0.88 0.86 -83.9 0 0 21.88 1.78
  L 11.71 28.32
  A 0.48 0.46 -79.6 0 0 12.14 28.97
  L 19.56 28.86
  A 0.81 0.74 -78.5 0 0 20.25 28.35
  Q 23.11 21.11 25.90 13.85
  Z"
/>
<ellipse fill="#ffffff" cx="0.00" cy="0.00" transform="translate(59.23,8.34) rotate(-1.8)" rx="4.10" ry="3.46"/>
<rect fill="#ffffff" x="46.00" y="5.50" width="6.76" height="24.00" rx="0.59"/>
<path fill="#ffffff" d="
  M 31.20 24.18
  L 27.34 24.11
  A 0.84 0.76 10.0 0 1 26.53 23.07
  L 32.76 6.73
  Q 33.27 5.37 33.86 6.71
  L 43.50 28.74
  A 0.54 0.54 -11.7 0 1 43.00 29.50
  L 34.27 29.50
  A 0.96 0.94 79.8 0 1 33.38 28.87
  L 31.86 24.77
  A 0.89 0.64 77.3 0 0 31.20 24.18
  Z"
/>
<path fill="#ffffff" d="
  M 90.04 19.56
  Q 89.98 21.05 89.99 22.53
  Q 89.99 23.79 90.53 24.31
  Q 91.19 24.95 92.28 24.66
  A 0.66 0.48 -16.7 0 1 93.02 24.92
  L 94.29 28.48
  A 0.82 0.70 -14.2 0 1 93.62 29.43
  Q 82.59 31.41 83.22 20.90
  Q 83.23 20.83 83.34 20.11
  Q 83.54 18.86 82.09 19.02
  A 0.99 0.98 86.9 0 1 81.00 18.04
  L 81.00 14.49
  A 0.53 0.53 7.2 0 1 81.66 13.98
  Q 83.83 14.52 83.25 12.25
  Q 82.97 11.15 83.40 9.78
  A 0.70 0.54 7.0 0 1 84.05 9.39
  L 88.34 9.43
  Q 90.48 9.45 90.05 11.27
  Q 89.34 14.35 91.79 14.12
  Q 92.88 14.02 93.17 14.20
  Q 93.77 14.56 93.44 15.54
  A 1.80 1.46 -47.2 0 0 93.38 16.48
  Q 94.12 19.73 90.56 19.16
  A 0.45 0.43 5.9 0 0 90.04 19.56
  Z"
/>
<path fill="#ffffff" d="
  M 103.51 13.96
  L 107.19 12.86
  A 0.56 0.48 76.0 0 1 107.81 13.30
  Q 108.35 15.75 107.81 18.20
  A 0.61 0.56 8.4 0 1 107.18 18.63
  Q 104.93 18.46 103.60 20.16
  A 1.52 1.35 66.7 0 0 103.30 21.06
  L 103.27 28.72
  A 0.79 0.77 -89.6 0 1 102.50 29.50
  L 96.91 29.50
  A 0.66 0.66 -86.2 0 1 96.25 28.84
  L 96.25 13.86
  A 0.75 0.75 8.3 0 1 97.22 13.14
  Q 98.36 13.49 100.01 13.03
  Q 101.83 12.51 102.79 13.76
  A 0.69 0.61 -25.9 0 0 103.51 13.96
  Z"
/>
<path fill="#ffffff" d="
  M 71.37 18.32
  Q 71.56 19.02 72.48 19.01
  Q 73.90 18.98 75.26 19.34
  Q 80.46 20.73 80.37 24.34
  Q 80.31 26.53 78.42 27.95
  Q 76.73 29.21 74.31 29.56
  Q 69.35 30.28 65.27 28.41
  A 0.64 0.52 23.9 0 1 64.90 27.69
  L 66.27 24.47
  A 0.66 0.52 20.7 0 1 67.04 24.23
  Q 70.35 25.33 73.25 25.25
  Q 73.84 25.23 74.06 24.80
  A 0.56 0.49 24.4 0 0 73.74 24.10
  Q 72.53 23.60 70.50 23.50
  Q 65.93 23.29 65.11 19.83
  Q 64.40 16.82 66.80 14.82
  Q 69.20 12.82 73.25 13.00
  Q 77.11 13.17 79.04 13.83
  A 0.70 0.69 9.7 0 1 79.52 14.50
  Q 79.51 15.66 78.86 16.66
  Q 78.60 17.06 78.50 17.55
  Q 78.17 19.28 76.31 17.94
  Q 74.84 16.87 71.80 17.68
  A 0.58 0.50 -15.3 0 0 71.37 18.32
  Z"
/>
<path fill="#ffffff" d="
  M 118.94 19.19
  Q 118.83 18.51 118.00 18.25
  Q 115.27 17.40 112.42 18.82
  A 0.52 0.49 -24.7 0 1 111.72 18.59
  L 110.20 15.04
  A 0.56 0.51 -24.2 0 1 110.50 14.35
  Q 115.94 11.84 121.31 13.44
  Q 125.52 14.69 125.77 19.51
  Q 126.00 23.87 126.00 28.84
  A 0.66 0.66 86.2 0 1 125.34 29.50
  Q 123.95 29.50 122.63 29.50
  Q 122.50 29.50 121.39 29.63
  Q 120.14 29.78 119.66 28.71
  A 0.40 0.40 -28.5 0 0 119.08 28.54
  Q 116.55 30.17 113.78 29.73
  Q 111.09 29.30 109.64 26.96
  Q 107.29 23.19 112.31 20.31
  Q 113.70 19.52 118.44 19.67
  A 0.48 0.41 -3.2 0 0 118.94 19.19
  Z
  M 119.2665 23.6648
  A 1.94 1.32 -18.8 0 0 117.0046 23.0404
  A 1.94 1.32 -18.8 0 0 115.5935 24.9152
  A 1.94 1.32 -18.8 0 0 117.8554 25.5396
  A 1.94 1.32 -18.8 0 0 119.2665 23.6648
  Z"
/>
<path fill="#ffffff" d="
  M 138.30 28.37
  Q 135.82 30.22 133.00 29.75
  Q 130.44 29.32 128.93 26.94
  Q 126.16 22.59 132.39 20.29
  Q 133.59 19.85 137.25 19.75
  Q 138.92 19.71 137.80 18.63
  Q 137.46 18.30 136.97 18.18
  Q 134.24 17.51 131.69 18.77
  A 0.60 0.46 -25.0 0 1 130.94 18.61
  L 129.29 14.98
  A 0.61 0.53 -23.1 0 1 129.66 14.23
  Q 133.61 12.68 137.26 12.79
  Q 144.78 13.03 145.08 20.51
  Q 145.25 24.50 145.25 28.98
  A 0.52 0.52 -0.0 0 1 144.73 29.50
  Q 142.12 29.50 140.00 29.56
  Q 138.95 29.59 138.74 28.56
  A 0.29 0.28 66.7 0 0 138.30 28.37
  Z
  M 138.25 23.82
  Q 138.13 22.54 135.31 23.48
  A 0.86 0.86 -26.3 0 0 134.87 24.78
  Q 136.04 26.48 137.34 25.53
  Q 138.33 24.81 138.25 23.82
  Z"
/>
<rect fill="#ffffff" x="55.75" y="13.25" width="6.78" height="16.24" rx="0.35"/>
<path fill="#fcf9fb" fill-opacity="0.980" d="
  M 5.94 30.00
  L 3.69 30.00
  Q 1.13 28.81 0.00 26.19
  L 0.00 23.69
  Q 1.59 20.10 4.81 20.08
  Q 7.51 20.06 9.17 22.61
  Q 12.08 27.05 5.94 30.00
  Z
  M 8.99 25.01
  A 3.98 3.98 0.0 0 0 5.01 21.03
  A 3.98 3.98 0.0 0 0 1.03 25.01
  A 3.98 3.98 0.0 0 0 5.01 28.99
  A 3.98 3.98 0.0 0 0 8.99 25.01
  Z"
/>
</svg>
